<mxfile host="app.diagrams.net" modified="2020-10-27T03:15:59.083Z" agent="5.0 (Windows NT 10.0; Win64; x64) AppleWebKit/537.36 (KHTML, like Gecko) Chrome/86.0.4240.75 Safari/537.36" etag="idTvug5rmqE2jI8T5ABO" version="13.8.3" type="github">
  <diagram id="-HzxoXXX6ZfSWINrwd7V" name="Page-1">
    <mxGraphModel dx="1422" dy="762" grid="1" gridSize="10" guides="1" tooltips="1" connect="1" arrows="1" fold="1" page="1" pageScale="1" pageWidth="850" pageHeight="1100" math="0" shadow="0">
      <root>
        <mxCell id="0" />
        <mxCell id="1" parent="0" />
        <mxCell id="_l6eRDVre9Wd-PLUxZ_N-18" value="" style="shape=card;whiteSpace=wrap;html=1;strokeWidth=2;" vertex="1" parent="1">
          <mxGeometry x="310" y="210" width="440" height="590" as="geometry" />
        </mxCell>
        <mxCell id="_l6eRDVre9Wd-PLUxZ_N-1" value="mes" style="ellipse;shape=cloud;whiteSpace=wrap;html=1;" vertex="1" parent="1">
          <mxGeometry x="480" y="30" width="120" height="80" as="geometry" />
        </mxCell>
        <mxCell id="_l6eRDVre9Wd-PLUxZ_N-2" value="" style="shape=flexArrow;endArrow=classic;html=1;width=10;endSize=9.67;exitX=0.5;exitY=1;exitDx=0;exitDy=0;exitPerimeter=0;" edge="1" parent="1" source="_l6eRDVre9Wd-PLUxZ_N-1">
          <mxGeometry width="50" height="50" relative="1" as="geometry">
            <mxPoint x="490" y="150" as="sourcePoint" />
            <mxPoint x="540" y="200" as="targetPoint" />
          </mxGeometry>
        </mxCell>
        <mxCell id="_l6eRDVre9Wd-PLUxZ_N-3" value="制订单" style="text;html=1;align=center;verticalAlign=middle;resizable=0;points=[];autosize=1;" vertex="1" parent="1">
          <mxGeometry x="550" y="130" width="50" height="20" as="geometry" />
        </mxCell>
        <mxCell id="_l6eRDVre9Wd-PLUxZ_N-6" value="设备初始化" style="rhombus;whiteSpace=wrap;html=1;" vertex="1" parent="1">
          <mxGeometry x="360" y="340" width="80" height="80" as="geometry" />
        </mxCell>
        <mxCell id="_l6eRDVre9Wd-PLUxZ_N-9" value="1.设备初始化，根据制订单打开或关闭相应设备。" style="rounded=1;whiteSpace=wrap;html=1;" vertex="1" parent="1">
          <mxGeometry x="600" y="300" width="120" height="60" as="geometry" />
        </mxCell>
        <mxCell id="_l6eRDVre9Wd-PLUxZ_N-11" value="" style="endArrow=classic;html=1;exitX=0.5;exitY=1;exitDx=0;exitDy=0;" edge="1" parent="1" source="_l6eRDVre9Wd-PLUxZ_N-6">
          <mxGeometry width="50" height="50" relative="1" as="geometry">
            <mxPoint x="400" y="570" as="sourcePoint" />
            <mxPoint x="400" y="450" as="targetPoint" />
          </mxGeometry>
        </mxCell>
        <mxCell id="_l6eRDVre9Wd-PLUxZ_N-12" value="" style="endArrow=classic;html=1;exitX=1;exitY=0.5;exitDx=0;exitDy=0;" edge="1" parent="1" source="_l6eRDVre9Wd-PLUxZ_N-6">
          <mxGeometry width="50" height="50" relative="1" as="geometry">
            <mxPoint x="400" y="570" as="sourcePoint" />
            <mxPoint x="480" y="380" as="targetPoint" />
          </mxGeometry>
        </mxCell>
        <mxCell id="_l6eRDVre9Wd-PLUxZ_N-13" value="成功" style="text;html=1;align=center;verticalAlign=middle;resizable=0;points=[];autosize=1;" vertex="1" parent="1">
          <mxGeometry x="400" y="420" width="40" height="20" as="geometry" />
        </mxCell>
        <mxCell id="_l6eRDVre9Wd-PLUxZ_N-14" value="失败" style="text;html=1;align=center;verticalAlign=middle;resizable=0;points=[];autosize=1;" vertex="1" parent="1">
          <mxGeometry x="430" y="360" width="40" height="20" as="geometry" />
        </mxCell>
        <mxCell id="_l6eRDVre9Wd-PLUxZ_N-15" value="" style="curved=1;endArrow=classic;html=1;entryX=0;entryY=0.5;entryDx=0;entryDy=0;" edge="1" parent="1" source="_l6eRDVre9Wd-PLUxZ_N-6" target="_l6eRDVre9Wd-PLUxZ_N-9">
          <mxGeometry width="50" height="50" relative="1" as="geometry">
            <mxPoint x="470" y="330" as="sourcePoint" />
            <mxPoint x="520" y="280" as="targetPoint" />
            <Array as="points">
              <mxPoint x="500" y="320" />
              <mxPoint x="530" y="370" />
            </Array>
          </mxGeometry>
        </mxCell>
        <mxCell id="_l6eRDVre9Wd-PLUxZ_N-17" value="？" style="rounded=0;whiteSpace=wrap;html=1;" vertex="1" parent="1">
          <mxGeometry x="480" y="365" width="70" height="30" as="geometry" />
        </mxCell>
        <mxCell id="_l6eRDVre9Wd-PLUxZ_N-19" value="&lt;font style=&quot;font-size: 15px&quot; face=&quot;Lucida Console&quot;&gt;auto-easycare&lt;/font&gt;" style="rounded=0;whiteSpace=wrap;html=1;strokeColor=none;" vertex="1" parent="1">
          <mxGeometry x="440" y="220" width="180" height="60" as="geometry" />
        </mxCell>
        <mxCell id="_l6eRDVre9Wd-PLUxZ_N-20" value="开始" style="rounded=1;whiteSpace=wrap;html=1;strokeColor=#000000;strokeWidth=2;" vertex="1" parent="1">
          <mxGeometry x="350" y="280" width="100" height="30" as="geometry" />
        </mxCell>
        <mxCell id="_l6eRDVre9Wd-PLUxZ_N-21" value="" style="endArrow=classic;html=1;exitX=0.5;exitY=1;exitDx=0;exitDy=0;entryX=0.5;entryY=0;entryDx=0;entryDy=0;" edge="1" parent="1" source="_l6eRDVre9Wd-PLUxZ_N-20" target="_l6eRDVre9Wd-PLUxZ_N-6">
          <mxGeometry width="50" height="50" relative="1" as="geometry">
            <mxPoint x="400" y="570" as="sourcePoint" />
            <mxPoint x="450" y="520" as="targetPoint" />
          </mxGeometry>
        </mxCell>
        <mxCell id="_l6eRDVre9Wd-PLUxZ_N-23" value="" style="shape=table;html=1;whiteSpace=wrap;startSize=0;container=1;collapsible=0;childLayout=tableLayout;strokeColor=#000000;strokeWidth=2;" vertex="1" parent="1">
          <mxGeometry x="70" y="210" width="50" height="560" as="geometry" />
        </mxCell>
        <mxCell id="_l6eRDVre9Wd-PLUxZ_N-79" style="shape=partialRectangle;html=1;whiteSpace=wrap;collapsible=0;dropTarget=0;pointerEvents=0;fillColor=none;top=0;left=0;bottom=0;right=0;points=[[0,0.5],[1,0.5]];portConstraint=eastwest;" vertex="1" parent="_l6eRDVre9Wd-PLUxZ_N-23">
          <mxGeometry width="50" height="29" as="geometry" />
        </mxCell>
        <mxCell id="_l6eRDVre9Wd-PLUxZ_N-80" value="设备E1" style="shape=partialRectangle;html=1;whiteSpace=wrap;connectable=0;fillColor=none;top=0;left=0;bottom=0;right=0;overflow=hidden;" vertex="1" parent="_l6eRDVre9Wd-PLUxZ_N-79">
          <mxGeometry width="50" height="29" as="geometry" />
        </mxCell>
        <mxCell id="_l6eRDVre9Wd-PLUxZ_N-77" style="shape=partialRectangle;html=1;whiteSpace=wrap;collapsible=0;dropTarget=0;pointerEvents=0;fillColor=none;top=0;left=0;bottom=0;right=0;points=[[0,0.5],[1,0.5]];portConstraint=eastwest;" vertex="1" parent="_l6eRDVre9Wd-PLUxZ_N-23">
          <mxGeometry y="29" width="50" height="30" as="geometry" />
        </mxCell>
        <mxCell id="_l6eRDVre9Wd-PLUxZ_N-78" value="设备E2" style="shape=partialRectangle;html=1;whiteSpace=wrap;connectable=0;fillColor=none;top=0;left=0;bottom=0;right=0;overflow=hidden;" vertex="1" parent="_l6eRDVre9Wd-PLUxZ_N-77">
          <mxGeometry width="50" height="30" as="geometry" />
        </mxCell>
        <mxCell id="_l6eRDVre9Wd-PLUxZ_N-63" style="shape=partialRectangle;html=1;whiteSpace=wrap;collapsible=0;dropTarget=0;pointerEvents=0;fillColor=none;top=0;left=0;bottom=0;right=0;points=[[0,0.5],[1,0.5]];portConstraint=eastwest;" vertex="1" parent="_l6eRDVre9Wd-PLUxZ_N-23">
          <mxGeometry y="59" width="50" height="29" as="geometry" />
        </mxCell>
        <mxCell id="_l6eRDVre9Wd-PLUxZ_N-64" style="shape=partialRectangle;html=1;whiteSpace=wrap;connectable=0;fillColor=none;top=0;left=0;bottom=0;right=0;overflow=hidden;" vertex="1" parent="_l6eRDVre9Wd-PLUxZ_N-63">
          <mxGeometry width="50" height="29" as="geometry" />
        </mxCell>
        <mxCell id="_l6eRDVre9Wd-PLUxZ_N-61" style="shape=partialRectangle;html=1;whiteSpace=wrap;collapsible=0;dropTarget=0;pointerEvents=0;fillColor=none;top=0;left=0;bottom=0;right=0;points=[[0,0.5],[1,0.5]];portConstraint=eastwest;" vertex="1" parent="_l6eRDVre9Wd-PLUxZ_N-23">
          <mxGeometry y="88" width="50" height="30" as="geometry" />
        </mxCell>
        <mxCell id="_l6eRDVre9Wd-PLUxZ_N-62" style="shape=partialRectangle;html=1;whiteSpace=wrap;connectable=0;fillColor=none;top=0;left=0;bottom=0;right=0;overflow=hidden;" vertex="1" parent="_l6eRDVre9Wd-PLUxZ_N-61">
          <mxGeometry width="50" height="30" as="geometry" />
        </mxCell>
        <mxCell id="_l6eRDVre9Wd-PLUxZ_N-59" style="shape=partialRectangle;html=1;whiteSpace=wrap;collapsible=0;dropTarget=0;pointerEvents=0;fillColor=none;top=0;left=0;bottom=0;right=0;points=[[0,0.5],[1,0.5]];portConstraint=eastwest;" vertex="1" parent="_l6eRDVre9Wd-PLUxZ_N-23">
          <mxGeometry y="118" width="50" height="29" as="geometry" />
        </mxCell>
        <mxCell id="_l6eRDVre9Wd-PLUxZ_N-60" style="shape=partialRectangle;html=1;whiteSpace=wrap;connectable=0;fillColor=none;top=0;left=0;bottom=0;right=0;overflow=hidden;" vertex="1" parent="_l6eRDVre9Wd-PLUxZ_N-59">
          <mxGeometry width="50" height="29" as="geometry" />
        </mxCell>
        <mxCell id="_l6eRDVre9Wd-PLUxZ_N-57" style="shape=partialRectangle;html=1;whiteSpace=wrap;collapsible=0;dropTarget=0;pointerEvents=0;fillColor=none;top=0;left=0;bottom=0;right=0;points=[[0,0.5],[1,0.5]];portConstraint=eastwest;" vertex="1" parent="_l6eRDVre9Wd-PLUxZ_N-23">
          <mxGeometry y="147" width="50" height="30" as="geometry" />
        </mxCell>
        <mxCell id="_l6eRDVre9Wd-PLUxZ_N-58" style="shape=partialRectangle;html=1;whiteSpace=wrap;connectable=0;fillColor=none;top=0;left=0;bottom=0;right=0;overflow=hidden;" vertex="1" parent="_l6eRDVre9Wd-PLUxZ_N-57">
          <mxGeometry width="50" height="30" as="geometry" />
        </mxCell>
        <mxCell id="_l6eRDVre9Wd-PLUxZ_N-55" style="shape=partialRectangle;html=1;whiteSpace=wrap;collapsible=0;dropTarget=0;pointerEvents=0;fillColor=none;top=0;left=0;bottom=0;right=0;points=[[0,0.5],[1,0.5]];portConstraint=eastwest;" vertex="1" parent="_l6eRDVre9Wd-PLUxZ_N-23">
          <mxGeometry y="177" width="50" height="29" as="geometry" />
        </mxCell>
        <mxCell id="_l6eRDVre9Wd-PLUxZ_N-56" style="shape=partialRectangle;html=1;whiteSpace=wrap;connectable=0;fillColor=none;top=0;left=0;bottom=0;right=0;overflow=hidden;" vertex="1" parent="_l6eRDVre9Wd-PLUxZ_N-55">
          <mxGeometry width="50" height="29" as="geometry" />
        </mxCell>
        <mxCell id="_l6eRDVre9Wd-PLUxZ_N-53" style="shape=partialRectangle;html=1;whiteSpace=wrap;collapsible=0;dropTarget=0;pointerEvents=0;fillColor=none;top=0;left=0;bottom=0;right=0;points=[[0,0.5],[1,0.5]];portConstraint=eastwest;" vertex="1" parent="_l6eRDVre9Wd-PLUxZ_N-23">
          <mxGeometry y="206" width="50" height="30" as="geometry" />
        </mxCell>
        <mxCell id="_l6eRDVre9Wd-PLUxZ_N-54" style="shape=partialRectangle;html=1;whiteSpace=wrap;connectable=0;fillColor=none;top=0;left=0;bottom=0;right=0;overflow=hidden;" vertex="1" parent="_l6eRDVre9Wd-PLUxZ_N-53">
          <mxGeometry width="50" height="30" as="geometry" />
        </mxCell>
        <mxCell id="_l6eRDVre9Wd-PLUxZ_N-51" style="shape=partialRectangle;html=1;whiteSpace=wrap;collapsible=0;dropTarget=0;pointerEvents=0;fillColor=none;top=0;left=0;bottom=0;right=0;points=[[0,0.5],[1,0.5]];portConstraint=eastwest;" vertex="1" parent="_l6eRDVre9Wd-PLUxZ_N-23">
          <mxGeometry y="236" width="50" height="29" as="geometry" />
        </mxCell>
        <mxCell id="_l6eRDVre9Wd-PLUxZ_N-52" style="shape=partialRectangle;html=1;whiteSpace=wrap;connectable=0;fillColor=none;top=0;left=0;bottom=0;right=0;overflow=hidden;" vertex="1" parent="_l6eRDVre9Wd-PLUxZ_N-51">
          <mxGeometry width="50" height="29" as="geometry" />
        </mxCell>
        <mxCell id="_l6eRDVre9Wd-PLUxZ_N-65" style="shape=partialRectangle;html=1;whiteSpace=wrap;collapsible=0;dropTarget=0;pointerEvents=0;fillColor=none;top=0;left=0;bottom=0;right=0;points=[[0,0.5],[1,0.5]];portConstraint=eastwest;" vertex="1" parent="_l6eRDVre9Wd-PLUxZ_N-23">
          <mxGeometry y="265" width="50" height="30" as="geometry" />
        </mxCell>
        <mxCell id="_l6eRDVre9Wd-PLUxZ_N-66" style="shape=partialRectangle;html=1;whiteSpace=wrap;connectable=0;fillColor=none;top=0;left=0;bottom=0;right=0;overflow=hidden;" vertex="1" parent="_l6eRDVre9Wd-PLUxZ_N-65">
          <mxGeometry width="50" height="30" as="geometry" />
        </mxCell>
        <mxCell id="_l6eRDVre9Wd-PLUxZ_N-67" style="shape=partialRectangle;html=1;whiteSpace=wrap;collapsible=0;dropTarget=0;pointerEvents=0;fillColor=none;top=0;left=0;bottom=0;right=0;points=[[0,0.5],[1,0.5]];portConstraint=eastwest;" vertex="1" parent="_l6eRDVre9Wd-PLUxZ_N-23">
          <mxGeometry y="295" width="50" height="29" as="geometry" />
        </mxCell>
        <mxCell id="_l6eRDVre9Wd-PLUxZ_N-68" style="shape=partialRectangle;html=1;whiteSpace=wrap;connectable=0;fillColor=none;top=0;left=0;bottom=0;right=0;overflow=hidden;" vertex="1" parent="_l6eRDVre9Wd-PLUxZ_N-67">
          <mxGeometry width="50" height="29" as="geometry" />
        </mxCell>
        <mxCell id="_l6eRDVre9Wd-PLUxZ_N-69" style="shape=partialRectangle;html=1;whiteSpace=wrap;collapsible=0;dropTarget=0;pointerEvents=0;fillColor=none;top=0;left=0;bottom=0;right=0;points=[[0,0.5],[1,0.5]];portConstraint=eastwest;" vertex="1" parent="_l6eRDVre9Wd-PLUxZ_N-23">
          <mxGeometry y="324" width="50" height="30" as="geometry" />
        </mxCell>
        <mxCell id="_l6eRDVre9Wd-PLUxZ_N-70" style="shape=partialRectangle;html=1;whiteSpace=wrap;connectable=0;fillColor=none;top=0;left=0;bottom=0;right=0;overflow=hidden;" vertex="1" parent="_l6eRDVre9Wd-PLUxZ_N-69">
          <mxGeometry width="50" height="30" as="geometry" />
        </mxCell>
        <mxCell id="_l6eRDVre9Wd-PLUxZ_N-71" style="shape=partialRectangle;html=1;whiteSpace=wrap;collapsible=0;dropTarget=0;pointerEvents=0;fillColor=none;top=0;left=0;bottom=0;right=0;points=[[0,0.5],[1,0.5]];portConstraint=eastwest;" vertex="1" parent="_l6eRDVre9Wd-PLUxZ_N-23">
          <mxGeometry y="354" width="50" height="29" as="geometry" />
        </mxCell>
        <mxCell id="_l6eRDVre9Wd-PLUxZ_N-72" style="shape=partialRectangle;html=1;whiteSpace=wrap;connectable=0;fillColor=none;top=0;left=0;bottom=0;right=0;overflow=hidden;" vertex="1" parent="_l6eRDVre9Wd-PLUxZ_N-71">
          <mxGeometry width="50" height="29" as="geometry" />
        </mxCell>
        <mxCell id="_l6eRDVre9Wd-PLUxZ_N-73" style="shape=partialRectangle;html=1;whiteSpace=wrap;collapsible=0;dropTarget=0;pointerEvents=0;fillColor=none;top=0;left=0;bottom=0;right=0;points=[[0,0.5],[1,0.5]];portConstraint=eastwest;" vertex="1" parent="_l6eRDVre9Wd-PLUxZ_N-23">
          <mxGeometry y="383" width="50" height="30" as="geometry" />
        </mxCell>
        <mxCell id="_l6eRDVre9Wd-PLUxZ_N-74" style="shape=partialRectangle;html=1;whiteSpace=wrap;connectable=0;fillColor=none;top=0;left=0;bottom=0;right=0;overflow=hidden;" vertex="1" parent="_l6eRDVre9Wd-PLUxZ_N-73">
          <mxGeometry width="50" height="30" as="geometry" />
        </mxCell>
        <mxCell id="_l6eRDVre9Wd-PLUxZ_N-75" style="shape=partialRectangle;html=1;whiteSpace=wrap;collapsible=0;dropTarget=0;pointerEvents=0;fillColor=none;top=0;left=0;bottom=0;right=0;points=[[0,0.5],[1,0.5]];portConstraint=eastwest;" vertex="1" parent="_l6eRDVre9Wd-PLUxZ_N-23">
          <mxGeometry y="413" width="50" height="29" as="geometry" />
        </mxCell>
        <mxCell id="_l6eRDVre9Wd-PLUxZ_N-76" style="shape=partialRectangle;html=1;whiteSpace=wrap;connectable=0;fillColor=none;top=0;left=0;bottom=0;right=0;overflow=hidden;" vertex="1" parent="_l6eRDVre9Wd-PLUxZ_N-75">
          <mxGeometry width="50" height="29" as="geometry" />
        </mxCell>
        <mxCell id="_l6eRDVre9Wd-PLUxZ_N-49" style="shape=partialRectangle;html=1;whiteSpace=wrap;collapsible=0;dropTarget=0;pointerEvents=0;fillColor=none;top=0;left=0;bottom=0;right=0;points=[[0,0.5],[1,0.5]];portConstraint=eastwest;" vertex="1" parent="_l6eRDVre9Wd-PLUxZ_N-23">
          <mxGeometry y="442" width="50" height="30" as="geometry" />
        </mxCell>
        <mxCell id="_l6eRDVre9Wd-PLUxZ_N-50" style="shape=partialRectangle;html=1;whiteSpace=wrap;connectable=0;fillColor=none;top=0;left=0;bottom=0;right=0;overflow=hidden;" vertex="1" parent="_l6eRDVre9Wd-PLUxZ_N-49">
          <mxGeometry width="50" height="30" as="geometry" />
        </mxCell>
        <mxCell id="_l6eRDVre9Wd-PLUxZ_N-24" value="" style="shape=partialRectangle;html=1;whiteSpace=wrap;collapsible=0;dropTarget=0;pointerEvents=0;fillColor=none;top=0;left=0;bottom=0;right=0;points=[[0,0.5],[1,0.5]];portConstraint=eastwest;" vertex="1" parent="_l6eRDVre9Wd-PLUxZ_N-23">
          <mxGeometry y="472" width="50" height="29" as="geometry" />
        </mxCell>
        <mxCell id="_l6eRDVre9Wd-PLUxZ_N-25" value="" style="shape=partialRectangle;html=1;whiteSpace=wrap;connectable=0;fillColor=none;top=0;left=0;bottom=0;right=0;overflow=hidden;" vertex="1" parent="_l6eRDVre9Wd-PLUxZ_N-24">
          <mxGeometry width="50" height="29" as="geometry" />
        </mxCell>
        <mxCell id="_l6eRDVre9Wd-PLUxZ_N-28" value="" style="shape=partialRectangle;html=1;whiteSpace=wrap;collapsible=0;dropTarget=0;pointerEvents=0;fillColor=none;top=0;left=0;bottom=0;right=0;points=[[0,0.5],[1,0.5]];portConstraint=eastwest;" vertex="1" parent="_l6eRDVre9Wd-PLUxZ_N-23">
          <mxGeometry y="501" width="50" height="30" as="geometry" />
        </mxCell>
        <mxCell id="_l6eRDVre9Wd-PLUxZ_N-29" value="" style="shape=partialRectangle;html=1;whiteSpace=wrap;connectable=0;fillColor=none;top=0;left=0;bottom=0;right=0;overflow=hidden;" vertex="1" parent="_l6eRDVre9Wd-PLUxZ_N-28">
          <mxGeometry width="50" height="30" as="geometry" />
        </mxCell>
        <mxCell id="_l6eRDVre9Wd-PLUxZ_N-32" value="" style="shape=partialRectangle;html=1;whiteSpace=wrap;collapsible=0;dropTarget=0;pointerEvents=0;fillColor=none;top=0;left=0;bottom=0;right=0;points=[[0,0.5],[1,0.5]];portConstraint=eastwest;" vertex="1" parent="_l6eRDVre9Wd-PLUxZ_N-23">
          <mxGeometry y="531" width="50" height="29" as="geometry" />
        </mxCell>
        <mxCell id="_l6eRDVre9Wd-PLUxZ_N-33" value="" style="shape=partialRectangle;html=1;whiteSpace=wrap;connectable=0;fillColor=none;top=0;left=0;bottom=0;right=0;overflow=hidden;" vertex="1" parent="_l6eRDVre9Wd-PLUxZ_N-32">
          <mxGeometry width="50" height="29" as="geometry" />
        </mxCell>
        <mxCell id="_l6eRDVre9Wd-PLUxZ_N-81" value="灌装包装线" style="text;html=1;align=center;verticalAlign=middle;resizable=0;points=[];autosize=1;" vertex="1" parent="1">
          <mxGeometry x="60" y="150" width="80" height="20" as="geometry" />
        </mxCell>
        <mxCell id="_l6eRDVre9Wd-PLUxZ_N-82" value="" style="triangle;whiteSpace=wrap;html=1;strokeColor=#000000;strokeWidth=2;direction=west;" vertex="1" parent="1">
          <mxGeometry x="120" y="200" width="30" height="20" as="geometry" />
        </mxCell>
        <mxCell id="_l6eRDVre9Wd-PLUxZ_N-84" value="" style="triangle;whiteSpace=wrap;html=1;strokeColor=#000000;strokeWidth=2;direction=west;" vertex="1" parent="1">
          <mxGeometry x="120" y="375" width="30" height="20" as="geometry" />
        </mxCell>
        <mxCell id="_l6eRDVre9Wd-PLUxZ_N-92" value="" style="triangle;whiteSpace=wrap;html=1;strokeColor=#000000;strokeWidth=2;direction=west;" vertex="1" parent="1">
          <mxGeometry x="120" y="610" width="30" height="20" as="geometry" />
        </mxCell>
        <mxCell id="_l6eRDVre9Wd-PLUxZ_N-94" value="1.扫码器S1" style="rounded=1;whiteSpace=wrap;html=1;strokeColor=#000000;strokeWidth=2;" vertex="1" parent="1">
          <mxGeometry x="150" y="190" width="110" height="30" as="geometry" />
        </mxCell>
        <mxCell id="_l6eRDVre9Wd-PLUxZ_N-95" value="2.个性化加注扫码器S2" style="rounded=1;whiteSpace=wrap;html=1;strokeColor=#000000;strokeWidth=2;" vertex="1" parent="1">
          <mxGeometry x="150" y="360" width="100" height="40" as="geometry" />
        </mxCell>
        <mxCell id="_l6eRDVre9Wd-PLUxZ_N-96" value="3.个性化打印扫码器S3" style="rounded=1;whiteSpace=wrap;html=1;strokeColor=#000000;strokeWidth=2;" vertex="1" parent="1">
          <mxGeometry x="150" y="600" width="110" height="40" as="geometry" />
        </mxCell>
      </root>
    </mxGraphModel>
  </diagram>
</mxfile>
